<svg height='100px' width='100px'  fill="#000000" xmlns="http://www.w3.org/2000/svg" xmlns:xlink="http://www.w3.org/1999/xlink" version="1.1" x="0px" y="0px" viewBox="0 0 100 100" enable-background="new 0 0 100 100" xml:space="preserve"><path d="M79.931,66.606C79.8,59.818,75.736,41.84,58.748,40.023c0.406-6.841,2.869-16.256,10.787-27.322  c1.004-1.401,0.994-3.277-0.025-4.668c-0.996-1.359-2.846-1.955-4.446-1.431c-0.271,0.089-26.966,9.18-28.89,36.533  c-1.845-1.168-4.635-1.747-7.849,0.514c-1.183,0.719-14.431,9.472-4.808,34.857c0.413,0.995,1.963,4.213,4.364,3.958  c1.971-0.213,3.244-2.485,4.125-7.361c0.71-3.799,3.127-13.307,6.583-17.309c6.335,18.644,16.421,26.691,25.424,32.772  c0.007,0.005,0.015,0.006,0.021,0.011c0.011,0.007,0.02,0.016,0.03,0.022l4.749,2.919c0.233,0.144,0.494,0.214,0.753,0.214  c0.389,0,0.773-0.157,1.054-0.458l1.439-1.542c0.435-0.466,0.512-1.162,0.189-1.711l-2.747-4.68  c-0.069-0.118-0.157-0.218-0.251-0.308c-1.001-1.875-6.523-12.711-8.747-27.188c2.295,0.693,6.692,3.148,10.604,11.839  c0.476,1.059,2.875,6.076,5.622,6.076c0.162,0,0.326-0.018,0.49-0.055C79.262,75.247,80.047,72.611,79.931,66.606z M65.875,9.081  c0.546-0.177,1.188,0.025,1.53,0.494c0.351,0.479,0.354,1.124,0.009,1.607C55.827,27.375,55.409,40.37,56.445,47.291  c-2.503-0.279-5.266-0.119-7.3,1.307c-0.854,0.6-1.502,1.373-1.963,2.298c-1.872-3.112-4.192-5.985-6.732-6.903  c-0.569-0.206-1.14-0.309-1.704-0.319C40.332,17.863,65.623,9.165,65.875,9.081z M57.542,57.451  c1.959,13.648,6.715,24.107,8.588,27.822c-7.065-7.997-11.906-16.265-14.401-24.657c-0.16-0.45-0.719-1.978-1.585-3.939  L57.542,57.451z M41.058,56.091c0.448-0.093,0.895-0.072,1.363,0.091c0.751,0.262,1.571-0.138,1.833-0.889  c0.261-0.751-0.137-1.571-0.889-1.832c-1.568-0.544-3.18-0.378-4.659,0.482c-6.187,3.593-9.208,18.896-9.533,20.638  c-0.652,3.607-1.345,4.668-1.604,4.953c-0.385-0.289-1.023-1.252-1.375-2.092c-8.921-23.535,3.129-31.038,3.64-31.341  c0.039-0.022,0.076-0.046,0.111-0.072c2.144-1.523,3.752-1.079,4.723-0.447c-9.637,8.701-8.836,20.793-8.795,21.325  c0.058,0.755,0.688,1.328,1.434,1.328c0.036,0,0.073-0.001,0.11-0.004c0.792-0.06,1.386-0.75,1.328-1.542  c-0.009-0.121-0.764-12.075,8.877-19.847c0.603-0.337,1.178-0.386,1.849-0.142c3.994,1.443,8.244,11.231,9.521,14.808  c2.556,8.604,7.489,17.112,14.666,25.317C55.159,80.868,46.652,73.123,41.058,56.091z M67.126,89.101l0.784-0.783l1.161,1.979  L67.126,89.101z M76.521,72.712c-0.772-0.641-2.107-2.699-2.785-4.209C67.684,55.061,60.131,54.649,58.85,54.691l-9.536-0.997  c0.164-1.254,0.654-2.155,1.483-2.737c2.746-1.926,8.703-0.27,10.767,0.53c0.736,0.287,1.574-0.079,1.863-0.82  c0.288-0.741-0.078-1.574-0.818-1.863c-0.337-0.131-1.67-0.63-3.44-1.042c-0.241-1.331-0.435-2.952-0.478-4.841  c14.706,1.752,18.245,17.696,18.361,23.742C77.128,70.601,76.747,72.147,76.521,72.712z"></path></svg>