<svg xmlns="http://www.w3.org/2000/svg" viewBox="0 0 100 100">
    <path d="M67 91l-3-4v-1c-2-4-19-43-2-69l4-3a1 1 0 000-2l-5-6a1 1 0 00-2-1l-5 5c-1 1-23 20-21 45 1 14 10 26 26 37l4 3a1 1 0 002 0l2-2v-2zM60 8l3 4-2 2-4-3 3-3zM36 55c-1-21 15-38 19-42l4 3c-16 27-1 64 2 71-8-9-13-19-16-28a1 1 0 10-2 1c2 9 7 19 15 28-14-10-21-21-22-33zm26 35l2 2-2-2z" />
    <path d="M43 42h1l1-1c2-11 8-18 8-18a1 1 0 00-3-2c0 1-6 8-8 19l1 2z" />
    <circle cx="45.4" cy="51.4" r=".8" />
    <circle cx="39.4" cy="54.2" r=".8" />
    <circle cx="45.3" cy="45.7" r=".8" />
    <circle cx="40.7" cy="47.5" r="2" />
    <circle cx="48.9" cy="57.6" r=".8" />
</svg>
