<svg height='100px' width='100px'  fill="#000000" xmlns="http://www.w3.org/2000/svg" xmlns:xlink="http://www.w3.org/1999/xlink" version="1.1" x="0px" y="0px" viewBox="0 0 100 100" enable-background="new 0 0 100 100" xml:space="preserve"><path d="M66.746,91.354l-2.747-4.679c-0.056-0.095-0.123-0.179-0.195-0.256c-1.796-4.053-18.375-43.192-2.038-69.768l4.031-2.601  c0.334-0.216,0.564-0.561,0.636-0.953s-0.023-0.795-0.261-1.115l-4.797-6.465c-0.236-0.319-0.595-0.526-0.99-0.572  c-0.395-0.049-0.791,0.073-1.095,0.33l-5.353,4.519c-0.006,0.005-0.008,0.012-0.014,0.018c-0.007,0.006-0.016,0.008-0.022,0.014  c-0.918,0.829-22.458,20.574-20.75,44.883C34.134,68.687,42.666,81.2,58.509,91.9c0.007,0.005,0.015,0.006,0.021,0.011  c0.011,0.007,0.02,0.016,0.03,0.022l4.749,2.918c0.233,0.144,0.494,0.214,0.753,0.214c0.389,0,0.772-0.157,1.054-0.457l1.44-1.542  C66.991,92.601,67.068,91.903,66.746,91.354z M59.976,8.464l2.968,4l-2.143,1.382l-3.675-2.976L59.976,8.464z M36.026,54.521  c-1.428-20.193,14.895-37.714,18.921-41.708l3.875,3.138c-15.799,26.906-1.034,63.892,2.02,70.897  C52.775,77.785,47.589,68.4,45.438,58.938c-0.176-0.776-0.95-1.262-1.724-1.085c-0.775,0.177-1.261,0.948-1.085,1.724  c2.206,9.703,7.408,19.285,15.46,28.508C44.337,78.24,36.905,66.961,36.026,54.521z M61.623,90.436l0.783-0.783l1.162,1.979  L61.623,90.436z"></path><path d="M43.389,41.728c0.091,0.017,0.182,0.026,0.271,0.026c0.678,0,1.281-0.48,1.413-1.17c2.04-10.689,7.443-17.377,7.497-17.443  c0.504-0.614,0.415-1.521-0.199-2.026c-0.614-0.505-1.521-0.417-2.024,0.196c-0.241,0.292-5.917,7.283-8.103,18.733  C42.095,40.825,42.607,41.579,43.389,41.728z"></path><circle cx="45.427" cy="51.375" r="0.844"></circle><circle cx="39.38" cy="54.166" r="0.844"></circle><circle cx="45.286" cy="45.682" r="0.844"></circle><circle cx="40.692" cy="47.463" r="2.004"></circle><circle cx="48.895" cy="57.634" r="0.844"></circle></svg>