<svg xmlns="http://www.w3.org/2000/svg" viewBox="0 0 100 100">
    <path d="M80 67c0-7-4-25-21-27 0-7 3-16 11-27a4 4 0 00-5-6s-27 9-29 36c-2-1-4-2-8 1-1 0-14 9-4 35 0 1 1 4 4 3 2 0 3-2 4-7 1-4 3-13 7-17 6 18 16 26 25 33l5 3a1 1 0 002-1l1-1v-2l-2-5h-1c-1-2-6-13-8-27 2 1 6 3 10 12 1 1 3 6 6 6 2-1 3-3 3-9zM66 9l1 1v1C56 27 55 40 56 47c-2 0-5 0-7 2l-2 2c-2-3-4-6-7-7h-1C40 18 66 9 66 9zm-8 48c2 14 6 25 8 28-7-8-12-16-14-24l-2-4h8zm-17-1h1a1 1 0 001-3l-4 1c-6 4-10 19-10 21l-1 5-2-3c-9-23 3-31 4-31h5c-10 8-9 20-9 21a1 1 0 003 0s-1-12 9-20h1c4 1 9 11 10 15 3 8 7 17 15 25-9-6-17-14-23-31zm26 33l1-1 1 2-2-1zm10-16l-3-4c-6-14-14-14-15-14l-10-1c0-2 1-2 2-3 3-2 8 0 11 0a1 1 0 001-2l-4-1v-5c14 2 18 18 18 24v6z" />
</svg>
